<svg width="151" height="22" viewBox="0 0 151 22" fill="none" xmlns="http://www.w3.org/2000/svg">
<g id="Group 54">
<path id="Vector" d="M13.0826 11.6875L13.8085 8.24895H9.26935V6.01756C9.26935 5.07684 9.90344 4.15986 11.9364 4.15986H14V1.2323C14 1.2323 12.1273 1 10.3369 1C6.59872 1 4.15528 2.64691 4.15528 5.62828V8.24895H0V11.6875H4.15528V20H9.26935V11.6875H13.0826Z" fill="black"/>
<path id="Vector_2" d="M46.946 5.33081C43.8406 5.33081 41.3357 7.83569 41.3357 10.9412C41.3357 14.0466 43.8406 16.5515 46.946 16.5515C50.0515 16.5515 52.5564 14.0466 52.5564 10.9412C52.5564 7.83569 50.0515 5.33081 46.946 5.33081ZM46.946 14.5886C44.9392 14.5886 43.2986 12.9529 43.2986 10.9412C43.2986 8.92944 44.9343 7.2937 46.946 7.2937C48.9578 7.2937 50.5935 8.92944 50.5935 10.9412C50.5935 12.9529 48.9529 14.5886 46.946 14.5886ZM54.0945 5.10132C54.0945 5.82886 53.5085 6.40991 52.7859 6.40991C52.0584 6.40991 51.4773 5.82397 51.4773 5.10132C51.4773 4.37866 52.0632 3.79272 52.7859 3.79272C53.5085 3.79272 54.0945 4.37866 54.0945 5.10132ZM57.8103 6.42944C57.7273 4.67651 57.3269 3.12378 56.0427 1.84448C54.7634 0.565185 53.2107 0.164795 51.4578 0.0769043C49.6511 -0.0256348 44.2361 -0.0256348 42.4294 0.0769043C40.6814 0.159912 39.1287 0.560303 37.8445 1.8396C36.5603 3.1189 36.1648 4.67163 36.0769 6.42456C35.9744 8.2312 35.9744 13.6462 36.0769 15.4529C36.1599 17.2058 36.5603 18.7585 37.8445 20.0378C39.1287 21.3171 40.6765 21.7175 42.4294 21.8054C44.2361 21.908 49.6511 21.908 51.4578 21.8054C53.2107 21.7224 54.7634 21.322 56.0427 20.0378C57.322 18.7585 57.7224 17.2058 57.8103 15.4529C57.9128 13.6462 57.9128 8.23608 57.8103 6.42944ZM55.4763 17.3914C55.0955 18.3484 54.3582 19.0857 53.3962 19.4714C51.9558 20.0427 48.5378 19.9109 46.946 19.9109C45.3542 19.9109 41.9314 20.0378 40.4958 19.4714C39.5388 19.0906 38.8015 18.3533 38.4158 17.3914C37.8445 15.9509 37.9763 12.533 37.9763 10.9412C37.9763 9.34937 37.8494 5.92651 38.4158 4.49097C38.7966 3.53394 39.5339 2.79663 40.4958 2.41089C41.9363 1.8396 45.3542 1.97144 46.946 1.97144C48.5378 1.97144 51.9607 1.84448 53.3962 2.41089C54.3533 2.79175 55.0906 3.52905 55.4763 4.49097C56.0476 5.9314 55.9158 9.34937 55.9158 10.9412C55.9158 12.533 56.0476 15.9558 55.4763 17.3914Z" fill="black"/>
<path id="Vector_3" d="M102.43 6.06025C102.446 6.28232 102.446 6.50444 102.446 6.72651C102.446 13.5 97.2906 21.3045 87.868 21.3045C84.9651 21.3045 82.2684 20.4638 80 19.0044C80.4125 19.052 80.809 19.0679 81.2373 19.0679C83.6326 19.0679 85.8375 18.2589 87.5983 16.8788C85.3458 16.8312 83.4581 15.356 82.8077 13.3255C83.125 13.373 83.4422 13.4048 83.7754 13.4048C84.2354 13.4048 84.6955 13.3413 85.1237 13.2303C82.776 12.7544 81.0152 10.6922 81.0152 8.20176V8.13833C81.6973 8.51904 82.4905 8.75698 83.3312 8.78867C81.9511 7.8686 81.0469 6.29819 81.0469 4.52153C81.0469 3.56978 81.3007 2.69731 81.7449 1.93589C84.2671 5.04502 88.0583 7.07544 92.3096 7.29756C92.2303 6.91685 92.1827 6.52031 92.1827 6.12373C92.1827 3.3001 94.4669 1 97.3064 1C98.7816 1 100.114 1.61865 101.05 2.61802C102.208 2.39595 103.318 1.96763 104.302 1.38071C103.921 2.57046 103.112 3.56982 102.049 4.2043C103.081 4.09331 104.08 3.80771 105 3.41118C104.302 4.42637 103.43 5.33052 102.43 6.06025Z" fill="black"/>
<path id="Vector_4" d="M150.208 5.60777C149.936 4.58129 149.133 3.77287 148.113 3.49852C146.264 3 138.852 3 138.852 3C138.852 3 131.44 3 129.591 3.49852C128.571 3.77292 127.768 4.58129 127.495 5.60777C127 7.46832 127 11.3502 127 11.3502C127 11.3502 127 15.232 127.495 17.0926C127.768 18.1191 128.571 18.8938 129.591 19.1681C131.44 19.6667 138.852 19.6667 138.852 19.6667C138.852 19.6667 146.264 19.6667 148.113 19.1681C149.133 18.8938 149.936 18.1191 150.208 17.0926C150.704 15.232 150.704 11.3502 150.704 11.3502C150.704 11.3502 150.704 7.46832 150.208 5.60777ZM136.428 14.8746V7.82574L142.623 11.3503L136.428 14.8746Z" fill="black"/>
</g>
</svg>
